<svg xmlns="http://www.w3.org/2000/svg" xmlns:xlink="http://www.w3.org/1999/xlink" width="500" zoomAndPan="magnify" viewBox="0 0 375 374.999991" height="500" preserveAspectRatio="xMidYMid meet" version="1.0"><defs><g/></defs><g fill="#8c52ff" fill-opacity="1"><g transform="translate(97.167676, 229.006185)"><g><path d="M 13.46875 -0.164062 C 18.5 -0.40625 23.527344 -0.324219 28.476562 -0.566406 C 32.617188 -0.8125 35.699219 -1.378906 37.320312 -5.4375 C 38.296875 -8.113281 38.863281 -12.980469 36.1875 -15.011719 C 33.183594 -17.199219 28.476562 -16.226562 25.070312 -16.390625 C 21.988281 -16.550781 14.035156 -19.066406 18.660156 -23.367188 C 21.417969 -25.964844 25.71875 -22.878906 28.964844 -23.773438 C 32.535156 -24.828125 33.347656 -28.882812 32.941406 -32.210938 C 32.699219 -35.050781 31.722656 -36.671875 28.964844 -37.726562 C 26.289062 -38.703125 20.6875 -36.917969 18.578125 -38.457031 C 15.738281 -40.488281 18.335938 -44.300781 20.363281 -44.707031 C 23.449219 -45.4375 26.773438 -43.324219 30.019531 -44.625 C 32.859375 -45.761719 34.320312 -48.4375 33.914062 -51.519531 C 33.347656 -55.820312 29.777344 -56.550781 26.042969 -57.117188 C 20.527344 -57.929688 5.921875 -60.6875 3.488281 -53.875 C 2.433594 -50.953125 3.003906 -46.894531 2.839844 -43.894531 C 2.675781 -38.457031 2.433594 -33.023438 2.191406 -27.585938 C 1.945312 -22.960938 1.785156 -18.335938 1.542969 -13.710938 C 1.378906 -10.0625 0.324219 -4.785156 3.246094 -1.945312 C 5.921875 0.648438 10.222656 -0.0820312 13.46875 -0.164062 Z M 13.46875 -0.164062 "/></g></g></g><g fill="#8c52ff" fill-opacity="1"><g transform="translate(134.081124, 229.006185)"><g><path d="M 19.714844 0 C 24.503906 0.324219 27.097656 -4.707031 29.453125 -8.113281 C 31.238281 -3.8125 34.402344 1.296875 39.757812 -0.40625 C 44.460938 -1.785156 47.871094 -9.085938 50.304688 -12.820312 C 54.117188 -18.824219 67.261719 -37.808594 57.847656 -43.894531 C 47.871094 -50.304688 40.8125 -23.125 38.539062 -17.605469 C 36.023438 -24.664062 44.785156 -31.5625 43 -39.429688 C 41.136719 -47.546875 33.023438 -44.707031 29.9375 -39.1875 C 25.964844 -46.894531 17.769531 -46.410156 18.417969 -37.078125 C 18.578125 -34.320312 19.554688 -31.5625 20.527344 -28.882812 C 21.015625 -27.585938 21.746094 -26.125 22.070312 -24.746094 C 22.878906 -21.664062 22.148438 -20.6875 20.851562 -17.605469 C 18.824219 -23.285156 16.714844 -28.964844 14.359375 -34.5625 C 13.0625 -37.566406 11.765625 -41.460938 9.167969 -43.652344 C 1.136719 -50.304688 0.40625 -36.917969 1.785156 -32.128906 C 4.136719 -23.609375 8.277344 -15.335938 12.089844 -7.382812 C 13.628906 -4.136719 15.660156 -0.242188 19.714844 0 Z M 19.714844 0 "/></g></g></g><g fill="#8c52ff" fill-opacity="1"><g transform="translate(194.03519, 229.006185)"><g><path d="M 1.460938 -51.195312 C 4.785156 -40 19.714844 -49.898438 17.121094 -58.09375 C 18.417969 -62.148438 11.277344 -63.691406 8.761719 -62.960938 C 4.058594 -61.664062 0.0820312 -55.984375 1.460938 -51.195312 Z M 12.089844 -1.136719 C 14.523438 -2.921875 14.847656 -5.921875 15.414062 -8.679688 C 17.199219 -17.769531 19.230469 -30.507812 15.171875 -39.269531 C 13.304688 -43.246094 8.601562 -46.003906 5.113281 -42.351562 C 2.597656 -39.675781 2.597656 -33.832031 2.273438 -30.507812 C 1.703125 -23.285156 -0.0820312 -11.035156 3.082031 -4.21875 C 4.785156 -0.648438 8.519531 1.378906 12.089844 -1.136719 Z M 12.089844 -1.136719 "/></g></g></g><g fill="#8c52ff" fill-opacity="1"><g transform="translate(210.341887, 229.006185)"><g><path d="M 18.417969 -1.054688 C 25.234375 1.054688 34.726562 0.648438 35.699219 -8.03125 C 36.835938 -17.929688 27.503906 -15.089844 21.09375 -17.851562 C 12.65625 -21.417969 16.308594 -29.53125 21.582031 -34.5625 C 27.828125 -36.59375 37.648438 -38.375 37.320312 -46.894531 C 36.917969 -55.660156 27.019531 -53.710938 21.257812 -51.765625 C 6.734375 -46.894531 -2.675781 -30.832031 2.757812 -15.984375 C 5.4375 -8.84375 11.195312 -3.40625 18.417969 -1.054688 Z M 18.417969 -1.054688 "/></g></g></g><g fill="#8c52ff" fill-opacity="1"><g transform="translate(246.444034, 229.006185)"><g><path d="M 23.042969 -2.273438 C 27.421875 -6.492188 26.9375 -13.0625 26.289062 -21.339844 C 25.636719 -26.53125 25.800781 -27.828125 28.722656 -32.046875 C 30.589844 -34.808594 32.453125 -37.648438 33.914062 -40.730469 C 35.457031 -44.054688 38.375 -50.953125 33.671875 -53.144531 C 26.367188 -56.632812 22.070312 -43.730469 19.308594 -39.1875 C 16.957031 -44.300781 16.144531 -51.84375 10.546875 -54.605469 C 3.976562 -57.847656 0 -52.25 1.542969 -46.246094 C 3.164062 -39.59375 9.167969 -34.320312 9.980469 -27.828125 C 10.710938 -21.257812 7.625 -9.410156 11.441406 -3.570312 C 14.523438 1.054688 21.015625 1.460938 23.042969 -2.273438 Z M 23.042969 -2.273438 "/></g></g></g><g fill="#fd7f32" fill-opacity="1"><g transform="translate(94.72936, 226.567867)"><g><path d="M 13.46875 -0.164062 C 18.5 -0.40625 23.527344 -0.324219 28.476562 -0.566406 C 32.617188 -0.8125 35.699219 -1.378906 37.320312 -5.4375 C 38.296875 -8.113281 38.863281 -12.980469 36.1875 -15.011719 C 33.183594 -17.199219 28.476562 -16.226562 25.070312 -16.390625 C 21.988281 -16.550781 14.035156 -19.066406 18.660156 -23.367188 C 21.417969 -25.964844 25.71875 -22.878906 28.964844 -23.773438 C 32.535156 -24.828125 33.347656 -28.882812 32.941406 -32.210938 C 32.699219 -35.050781 31.722656 -36.671875 28.964844 -37.726562 C 26.289062 -38.703125 20.6875 -36.917969 18.578125 -38.457031 C 15.738281 -40.488281 18.335938 -44.300781 20.363281 -44.707031 C 23.449219 -45.4375 26.773438 -43.324219 30.019531 -44.625 C 32.859375 -45.761719 34.320312 -48.4375 33.914062 -51.519531 C 33.347656 -55.820312 29.777344 -56.550781 26.042969 -57.117188 C 20.527344 -57.929688 5.921875 -60.6875 3.488281 -53.875 C 2.433594 -50.953125 3.003906 -46.894531 2.839844 -43.894531 C 2.675781 -38.457031 2.433594 -33.023438 2.191406 -27.585938 C 1.945312 -22.960938 1.785156 -18.335938 1.542969 -13.710938 C 1.378906 -10.0625 0.324219 -4.785156 3.246094 -1.945312 C 5.921875 0.648438 10.222656 -0.0820312 13.46875 -0.164062 Z M 13.46875 -0.164062 "/></g></g></g><g fill="#fd7f32" fill-opacity="1"><g transform="translate(131.642808, 226.567867)"><g><path d="M 19.714844 0 C 24.503906 0.324219 27.097656 -4.707031 29.453125 -8.113281 C 31.238281 -3.8125 34.402344 1.296875 39.757812 -0.40625 C 44.460938 -1.785156 47.871094 -9.085938 50.304688 -12.820312 C 54.117188 -18.824219 67.261719 -37.808594 57.847656 -43.894531 C 47.871094 -50.304688 40.8125 -23.125 38.539062 -17.605469 C 36.023438 -24.664062 44.785156 -31.5625 43 -39.429688 C 41.136719 -47.546875 33.023438 -44.707031 29.9375 -39.1875 C 25.964844 -46.894531 17.769531 -46.410156 18.417969 -37.078125 C 18.578125 -34.320312 19.554688 -31.5625 20.527344 -28.882812 C 21.015625 -27.585938 21.746094 -26.125 22.070312 -24.746094 C 22.878906 -21.664062 22.148438 -20.6875 20.851562 -17.605469 C 18.824219 -23.285156 16.714844 -28.964844 14.359375 -34.5625 C 13.0625 -37.566406 11.765625 -41.460938 9.167969 -43.652344 C 1.136719 -50.304688 0.40625 -36.917969 1.785156 -32.128906 C 4.136719 -23.609375 8.277344 -15.335938 12.089844 -7.382812 C 13.628906 -4.136719 15.660156 -0.242188 19.714844 0 Z M 19.714844 0 "/></g></g></g><g fill="#fd7f32" fill-opacity="1"><g transform="translate(191.596873, 226.567867)"><g><path d="M 1.460938 -51.195312 C 4.785156 -40 19.714844 -49.898438 17.121094 -58.09375 C 18.417969 -62.148438 11.277344 -63.691406 8.761719 -62.960938 C 4.058594 -61.664062 0.0820312 -55.984375 1.460938 -51.195312 Z M 12.089844 -1.136719 C 14.523438 -2.921875 14.847656 -5.921875 15.414062 -8.679688 C 17.199219 -17.769531 19.230469 -30.507812 15.171875 -39.269531 C 13.304688 -43.246094 8.601562 -46.003906 5.113281 -42.351562 C 2.597656 -39.675781 2.597656 -33.832031 2.273438 -30.507812 C 1.703125 -23.285156 -0.0820312 -11.035156 3.082031 -4.21875 C 4.785156 -0.648438 8.519531 1.378906 12.089844 -1.136719 Z M 12.089844 -1.136719 "/></g></g></g><g fill="#fd7f32" fill-opacity="1"><g transform="translate(207.90357, 226.567867)"><g><path d="M 18.417969 -1.054688 C 25.234375 1.054688 34.726562 0.648438 35.699219 -8.03125 C 36.835938 -17.929688 27.503906 -15.089844 21.09375 -17.851562 C 12.65625 -21.417969 16.308594 -29.53125 21.582031 -34.5625 C 27.828125 -36.59375 37.648438 -38.375 37.320312 -46.894531 C 36.917969 -55.660156 27.019531 -53.710938 21.257812 -51.765625 C 6.734375 -46.894531 -2.675781 -30.832031 2.757812 -15.984375 C 5.4375 -8.84375 11.195312 -3.40625 18.417969 -1.054688 Z M 18.417969 -1.054688 "/></g></g></g><g fill="#fd7f32" fill-opacity="1"><g transform="translate(244.005718, 226.567867)"><g><path d="M 23.042969 -2.273438 C 27.421875 -6.492188 26.9375 -13.0625 26.289062 -21.339844 C 25.636719 -26.53125 25.800781 -27.828125 28.722656 -32.046875 C 30.589844 -34.808594 32.453125 -37.648438 33.914062 -40.730469 C 35.457031 -44.054688 38.375 -50.953125 33.671875 -53.144531 C 26.367188 -56.632812 22.070312 -43.730469 19.308594 -39.1875 C 16.957031 -44.300781 16.144531 -51.84375 10.546875 -54.605469 C 3.976562 -57.847656 0 -52.25 1.542969 -46.246094 C 3.164062 -39.59375 9.167969 -34.320312 9.980469 -27.828125 C 10.710938 -21.257812 7.625 -9.410156 11.441406 -3.570312 C 14.523438 1.054688 21.015625 1.460938 23.042969 -2.273438 Z M 23.042969 -2.273438 "/></g></g></g><g fill="#8c52ff" fill-opacity="1"><g transform="translate(280.7232, 228.995889)"><g><path d="M 1.621094 -2.351562 C 4.21875 3.894531 13.957031 -3.894531 9.734375 -7.871094 C 6.492188 -12.738281 -0.40625 -7.140625 1.621094 -2.351562 Z M 1.621094 -2.351562 "/></g></g></g><g fill="#fd7f32" fill-opacity="1"><g transform="translate(278.284879, 226.557568)"><g><path d="M 1.621094 -2.351562 C 4.21875 3.894531 13.957031 -3.894531 9.734375 -7.871094 C 6.492188 -12.738281 -0.40625 -7.140625 1.621094 -2.351562 Z M 1.621094 -2.351562 "/></g></g></g><g fill="#8c52ff" fill-opacity="1"><g transform="translate(137.151324, 248.817186)"><g><path d="M 0.0625 -5.5625 L 0.0625 -6.953125 L 4.953125 -6.953125 L 4.953125 -5.5625 L 3.296875 -5.5625 L 3.296875 0 L 1.71875 0 L 1.71875 -5.5625 Z M 0.0625 -5.5625 "/></g></g></g><g fill="#8c52ff" fill-opacity="1"><g transform="translate(144.969877, 248.817186)"><g><path d="M 4.484375 -6.953125 L 4.484375 -5.5625 L 2.09375 -5.5625 L 2.09375 -4.171875 L 4.375 -4.171875 L 4.375 -2.78125 L 2.09375 -2.78125 L 2.09375 -1.390625 L 4.484375 -1.390625 L 4.484375 0 L 0.5 0 L 0.5 -6.953125 Z M 4.484375 -6.953125 "/></g></g></g><g fill="#8c52ff" fill-opacity="1"><g transform="translate(152.653627, 248.817186)"><g><path d="M 4.203125 -1.4375 C 4.441406 -1.4375 4.675781 -1.472656 4.90625 -1.546875 C 5.132812 -1.617188 5.300781 -1.6875 5.40625 -1.75 L 5.5625 -1.859375 L 6.234375 -0.515625 C 6.210938 -0.492188 6.179688 -0.46875 6.140625 -0.4375 C 6.109375 -0.414062 6.019531 -0.363281 5.875 -0.28125 C 5.726562 -0.207031 5.570312 -0.144531 5.40625 -0.09375 C 5.25 -0.0390625 5.035156 0.00390625 4.765625 0.046875 C 4.503906 0.0976562 4.234375 0.125 3.953125 0.125 C 3.304688 0.125 2.691406 -0.03125 2.109375 -0.34375 C 1.535156 -0.664062 1.070312 -1.101562 0.71875 -1.65625 C 0.363281 -2.21875 0.1875 -2.820312 0.1875 -3.46875 C 0.1875 -3.945312 0.289062 -4.410156 0.5 -4.859375 C 0.707031 -5.316406 0.984375 -5.703125 1.328125 -6.015625 C 1.679688 -6.335938 2.085938 -6.59375 2.546875 -6.78125 C 3.003906 -6.976562 3.472656 -7.078125 3.953125 -7.078125 C 4.398438 -7.078125 4.8125 -7.019531 5.1875 -6.90625 C 5.570312 -6.800781 5.84375 -6.695312 6 -6.59375 L 6.234375 -6.4375 L 5.5625 -5.09375 C 5.53125 -5.125 5.472656 -5.160156 5.390625 -5.203125 C 5.304688 -5.253906 5.144531 -5.316406 4.90625 -5.390625 C 4.675781 -5.472656 4.441406 -5.515625 4.203125 -5.515625 C 3.816406 -5.515625 3.472656 -5.453125 3.171875 -5.328125 C 2.867188 -5.203125 2.628906 -5.039062 2.453125 -4.84375 C 2.273438 -4.644531 2.140625 -4.425781 2.046875 -4.1875 C 1.953125 -3.957031 1.90625 -3.722656 1.90625 -3.484375 C 1.90625 -2.953125 2.101562 -2.476562 2.5 -2.0625 C 2.894531 -1.644531 3.460938 -1.4375 4.203125 -1.4375 Z M 4.203125 -1.4375 "/></g></g></g><g fill="#8c52ff" fill-opacity="1"><g transform="translate(161.794926, 248.817186)"><g><path d="M 2.09375 -2.78125 L 2.09375 0 L 0.5 0 L 0.5 -6.953125 L 2.09375 -6.953125 L 2.09375 -4.171875 L 4.328125 -4.171875 L 4.328125 -6.953125 L 5.90625 -6.953125 L 5.90625 0 L 4.328125 0 L 4.328125 -2.78125 Z M 2.09375 -2.78125 "/></g></g></g><g fill="#8c52ff" fill-opacity="1"><g transform="translate(171.012053, 248.817186)"><g/></g></g><g fill="#8c52ff" fill-opacity="1"><g transform="translate(176.109265, 248.817186)"><g><path d="M 0.5 -6.953125 L 3.046875 -6.953125 C 3.742188 -6.953125 4.3125 -6.769531 4.75 -6.40625 C 5.195312 -6.039062 5.421875 -5.507812 5.421875 -4.8125 C 5.421875 -4.113281 5.195312 -3.566406 4.75 -3.171875 C 4.300781 -2.773438 3.734375 -2.578125 3.046875 -2.578125 L 2.09375 -2.578125 L 2.09375 0 L 0.5 0 Z M 2.09375 -3.84375 L 2.53125 -3.84375 C 2.882812 -3.84375 3.175781 -3.910156 3.40625 -4.046875 C 3.632812 -4.191406 3.75 -4.429688 3.75 -4.765625 C 3.75 -5.085938 3.632812 -5.320312 3.40625 -5.46875 C 3.175781 -5.613281 2.882812 -5.6875 2.53125 -5.6875 L 2.09375 -5.6875 Z M 2.09375 -3.84375 "/></g></g></g><g fill="#8c52ff" fill-opacity="1"><g transform="translate(184.517573, 248.817186)"><g><path d="M 2.09375 -6.953125 L 2.09375 -1.390625 L 4.484375 -1.390625 L 4.484375 0 L 0.5 0 L 0.5 -6.953125 Z M 2.09375 -6.953125 "/></g></g></g><g fill="#8c52ff" fill-opacity="1"><g transform="translate(192.074941, 248.817186)"><g><path d="M 4.03125 -6.953125 L 6.84375 0 L 5.140625 0 L 4.625 -1.390625 L 1.984375 -1.390625 L 1.46875 0 L -0.234375 0 L 2.5625 -6.953125 Z M 4.078125 -2.78125 L 3.3125 -4.796875 L 3.296875 -4.796875 L 2.515625 -2.78125 Z M 4.078125 -2.78125 "/></g></g></g><g fill="#8c52ff" fill-opacity="1"><g transform="translate(201.477427, 248.817186)"><g><path d="M 0.0625 -5.5625 L 0.0625 -6.953125 L 4.953125 -6.953125 L 4.953125 -5.5625 L 3.296875 -5.5625 L 3.296875 0 L 1.71875 0 L 1.71875 -5.5625 Z M 0.0625 -5.5625 "/></g></g></g><g fill="#8c52ff" fill-opacity="1"><g transform="translate(209.29598, 248.817186)"><g><path d="M 4.515625 -6.953125 L 4.515625 -5.5625 L 2.09375 -5.5625 L 2.09375 -4.171875 L 4.34375 -4.171875 L 4.34375 -2.78125 L 2.09375 -2.78125 L 2.09375 0 L 0.5 0 L 0.5 -6.953125 Z M 4.515625 -6.953125 "/></g></g></g><g fill="#8c52ff" fill-opacity="1"><g transform="translate(216.8702, 248.817186)"><g><path d="M 0.1875 -3.484375 C 0.1875 -4.484375 0.53125 -5.332031 1.21875 -6.03125 C 1.90625 -6.726562 2.734375 -7.078125 3.703125 -7.078125 C 4.671875 -7.078125 5.492188 -6.726562 6.171875 -6.03125 C 6.847656 -5.34375 7.1875 -4.492188 7.1875 -3.484375 C 7.1875 -2.460938 6.851562 -1.601562 6.1875 -0.90625 C 5.519531 -0.21875 4.691406 0.125 3.703125 0.125 C 2.679688 0.125 1.835938 -0.21875 1.171875 -0.90625 C 0.515625 -1.59375 0.1875 -2.453125 0.1875 -3.484375 Z M 1.90625 -3.484375 C 1.90625 -3.117188 1.957031 -2.785156 2.0625 -2.484375 C 2.175781 -2.179688 2.375 -1.925781 2.65625 -1.71875 C 2.9375 -1.507812 3.285156 -1.40625 3.703125 -1.40625 C 4.285156 -1.40625 4.726562 -1.609375 5.03125 -2.015625 C 5.332031 -2.421875 5.484375 -2.910156 5.484375 -3.484375 C 5.484375 -4.046875 5.328125 -4.53125 5.015625 -4.9375 C 4.710938 -5.34375 4.273438 -5.546875 3.703125 -5.546875 C 3.128906 -5.546875 2.6875 -5.34375 2.375 -4.9375 C 2.0625 -4.53125 1.90625 -4.046875 1.90625 -3.484375 Z M 1.90625 -3.484375 "/></g></g></g><g fill="#8c52ff" fill-opacity="1"><g transform="translate(227.056231, 248.817186)"><g><path d="M 0.5 -6.953125 L 2.984375 -6.953125 C 3.648438 -6.953125 4.191406 -6.769531 4.609375 -6.40625 C 5.035156 -6.050781 5.25 -5.546875 5.25 -4.890625 C 5.25 -4.378906 5.117188 -3.945312 4.859375 -3.59375 C 4.609375 -3.25 4.265625 -3.007812 3.828125 -2.875 L 6.21875 0 L 4.21875 0 L 2.09375 -2.75 L 2.09375 0 L 0.5 0 Z M 2.09375 -3.859375 L 2.28125 -3.859375 C 2.425781 -3.859375 2.546875 -3.859375 2.640625 -3.859375 C 2.742188 -3.867188 2.859375 -3.890625 2.984375 -3.921875 C 3.117188 -3.960938 3.222656 -4.015625 3.296875 -4.078125 C 3.378906 -4.140625 3.445312 -4.226562 3.5 -4.34375 C 3.5625 -4.457031 3.59375 -4.597656 3.59375 -4.765625 C 3.59375 -4.941406 3.5625 -5.085938 3.5 -5.203125 C 3.445312 -5.316406 3.378906 -5.40625 3.296875 -5.46875 C 3.222656 -5.53125 3.117188 -5.578125 2.984375 -5.609375 C 2.859375 -5.648438 2.742188 -5.671875 2.640625 -5.671875 C 2.546875 -5.679688 2.425781 -5.6875 2.28125 -5.6875 L 2.09375 -5.6875 Z M 2.09375 -3.859375 "/></g></g></g><g fill="#8c52ff" fill-opacity="1"><g transform="translate(235.885796, 248.817186)"><g><path d="M 6.25 0 L 5.921875 -4.125 L 5.875 -4.125 L 4.453125 -0.046875 L 3.515625 -0.046875 L 2.09375 -4.125 L 2.046875 -4.125 L 1.71875 0 L 0.140625 0 L 0.765625 -6.953125 L 2.4375 -6.953125 L 3.984375 -2.9375 L 5.53125 -6.953125 L 7.203125 -6.953125 L 7.828125 0 Z M 6.25 0 "/></g></g></g></svg>